<?xml version="1.0" encoding="iso-8859-1"?>
<!-- Uploaded to: SVG Repo, www.svgrepo.com, Generator: SVG Repo Mixer Tools -->
<svg height="800px" width="800px" version="1.1" id="Capa_1" xmlns="http://www.w3.org/2000/svg" xmlns:xlink="http://www.w3.org/1999/xlink" 
	 viewBox="0 0 460 460" xml:space="preserve">
<g id="XMLID_1004_">
	<path id="XMLID_1005_" style="fill:#C0AB91;" d="M314.672,16.087C229.546,49.813,169.341,132.874,169.341,230
		c0,97.125,60.205,180.187,145.33,213.91C399.797,410.191,460,327.126,460,230S399.797,49.809,314.672,16.087z M251.173,210
		l3.974-37.308L230,144.845l36.711-7.749l18.714-32.524l18.714,32.524l36.711,7.749l-25.146,27.846l3.98,37.309l-34.258-15.31
		L251.173,210z M378.834,345.428l-34.258-15.31l-34.254,15.31l3.974-37.308l-25.147-27.847l36.711-7.749L344.575,240l18.714,32.524
		L400,280.274l-25.145,27.845L378.834,345.428z"/>
	<path id="XMLID_1009_" style="fill:#FFDE55;" d="M84.67,230c0,118.429,96.006,214.434,214.434,214.434
		c5.212,0,10.447-0.159,15.566-0.525c-85.125-33.723-145.33-116.784-145.33-213.91c0-97.126,60.205-180.187,145.33-213.91
		c-5.118-0.366-10.354-0.525-15.566-0.525C180.676,15.566,84.67,111.571,84.67,230z"/>
	<path id="XMLID_1010_" style="fill:#FFEB99;" d="M299.105,444.434C180.676,444.434,84.67,348.429,84.67,230
		c0-118.429,96.006-214.434,214.434-214.434c5.212,0,10.447,0.159,15.566,0.525C288.432,5.703,259.883,0,230,0
		C102.975,0,0,102.975,0,230s102.975,230,230,230c29.896,0,58.458-5.708,84.661-16.087
		C309.552,444.275,304.316,444.434,299.105,444.434z"/>
	<polygon id="XMLID_1011_" style="fill:#FFDE55;" points="363.289,272.524 344.575,240 344.576,330.118 378.834,345.428 
		374.855,308.119 400,280.274 	"/>
	<polygon id="XMLID_1012_" style="fill:#FFEB99;" points="325.861,272.524 289.149,280.274 314.296,308.12 310.322,345.428 
		344.576,330.118 344.575,240 	"/>
	<polygon id="XMLID_1013_" style="fill:#FFDE55;" points="315.705,172.691 340.851,144.845 304.139,137.096 285.425,104.571 
		285.426,194.69 319.685,210 	"/>
	<polygon id="XMLID_1014_" style="fill:#FFEB99;" points="266.711,137.096 230,144.845 255.147,172.692 251.173,210 285.426,194.69 
		285.425,104.571 	"/>
</g>
</svg>